<?xml version="1.0" standalone="no"?>
<!DOCTYPE svg PUBLIC "-//W3C//DTD SVG 20010904//EN"
 "http://www.w3.org/TR/2001/REC-SVG-20010904/DTD/svg10.dtd">
<svg version="1.0" xmlns="http://www.w3.org/2000/svg"
 width="547.000000pt" height="547.000000pt" viewBox="0 0 547.000000 547.000000"
 preserveAspectRatio="xMidYMid meet">
<metadata>
Created by potrace 1.14, written by Peter Selinger 2001-2017
</metadata>
<g transform="translate(0.000000,547.000000) scale(0.100000,-0.100000)"
fill="#000000" stroke="none">
<path d="M1030 5444 c-30 -12 -62 -32 -71 -43 -17 -20 -18 -67 -3 -126 4 -16
3 -27 -1 -23 -4 4 -19 2 -34 -4 -14 -6 -39 -12 -56 -13 -34 -2 -58 -8 -65 -15
-3 -3 -15 -11 -28 -18 -18 -10 -27 -11 -38 -1 -32 26 -164 1 -164 -31 0 -6 -9
-19 -20 -30 -28 -28 -25 -44 16 -83 l36 -33 -29 -47 c-23 -39 -33 -47 -58 -47
-40 0 -48 -7 -68 -60 -21 -58 -21 -84 0 -121 16 -27 30 -34 61 -30 28 4 9 -19
-30 -37 -24 -10 -49 -26 -56 -35 -15 -18 -12 -61 6 -94 7 -13 10 -23 7 -23
-10 0 18 -26 41 -38 23 -12 62 -5 82 14 25 25 39 6 36 -52 -2 -42 2 -59 14
-69 72 -60 114 -105 109 -119 -7 -18 44 -73 80 -87 37 -14 73 -4 110 31 18 17
34 30 37 30 3 0 5 -21 5 -47 0 -27 3 -68 5 -93 5 -43 3 -48 -35 -84 -22 -22
-47 -52 -57 -68 -9 -15 -20 -28 -25 -28 -4 0 -6 -4 -3 -9 3 -5 -1 -14 -9 -21
-8 -7 -15 -17 -15 -23 0 -6 -17 -44 -37 -86 -33 -65 -38 -85 -39 -151 -1 -41
-5 -86 -9 -100 -5 -14 -10 -31 -11 -39 -2 -8 -16 -41 -32 -75 -43 -89 -37
-157 28 -286 16 -30 42 -72 58 -93 17 -21 36 -55 43 -75 6 -20 17 -42 24 -47
6 -6 15 -20 19 -31 4 -13 33 -35 73 -55 50 -26 67 -40 70 -59 2 -13 14 -36 26
-50 28 -31 47 -66 47 -83 0 -8 14 -34 32 -58 41 -56 42 -66 10 -74 -36 -8
-106 -72 -121 -112 -18 -44 -20 -159 -5 -188 7 -14 11 -25 9 -25 -7 0 19 -45
65 -112 35 -50 57 -72 99 -94 32 -16 61 -40 70 -57 9 -17 30 -48 46 -71 46
-64 62 -97 68 -139 3 -20 10 -44 17 -52 6 -8 12 -36 12 -62 0 -26 3 -54 8 -63
4 -8 10 -31 13 -50 9 -62 34 -155 47 -176 7 -11 29 -31 49 -45 20 -13 39 -28
42 -33 13 -17 83 -23 112 -9 29 15 47 10 47 -11 0 -16 18 -51 46 -91 12 -17
25 -50 29 -75 3 -25 9 -58 11 -74 3 -16 10 -38 16 -50 6 -11 10 -21 8 -21 -6
0 13 -50 24 -64 6 -8 12 -26 12 -40 1 -14 2 -31 3 -37 1 -5 17 -36 36 -68 19
-32 36 -68 38 -80 1 -13 10 -34 18 -47 15 -23 40 -102 43 -137 6 -52 19 -113
27 -118 5 -3 9 -12 9 -20 0 -21 59 -92 82 -99 10 -4 18 -12 18 -19 0 -13 61
-76 74 -76 5 0 32 -11 60 -24 155 -75 103 -68 531 -64 212 1 385 6 385 10 0 5
3 7 8 6 4 0 27 8 52 20 25 12 50 22 56 22 12 0 71 50 148 127 40 38 67 81 113
175 67 134 121 285 127 351 2 23 11 56 20 72 9 17 16 44 16 60 0 17 9 49 20
72 10 23 21 56 24 73 2 17 9 36 14 43 6 7 12 41 15 77 5 75 14 121 28 135 5 5
9 19 9 31 0 13 4 25 9 29 6 3 13 25 16 49 l7 44 46 -3 c46 -3 97 16 145 55 19
15 62 90 52 90 -3 0 0 10 7 23 7 12 13 56 13 97 1 41 5 98 10 125 4 28 9 74
10 102 2 29 6 57 9 61 3 5 8 31 11 58 4 27 8 57 11 66 3 9 7 26 9 38 2 12 29
47 60 78 62 63 114 146 122 195 3 18 8 39 13 47 11 22 5 171 -8 202 -15 37
-70 88 -96 89 -56 2 -108 18 -103 32 7 19 102 10 180 -17 57 -19 76 -22 113
-14 29 6 49 6 57 0 8 -7 26 -4 57 10 25 11 58 26 74 33 18 8 39 10 57 5 20 -6
31 -4 39 5 7 8 27 19 46 25 19 6 34 15 34 20 0 4 15 13 33 20 17 7 53 34 78
60 25 26 50 49 55 51 6 2 23 21 38 42 26 33 27 40 16 66 -14 34 -57 55 -100
49 -38 -6 -38 4 0 41 17 16 42 51 55 77 22 42 24 52 13 73 -12 22 -16 23 -79
17 -36 -3 -69 -3 -72 1 -4 3 4 21 18 39 14 18 25 37 25 42 0 5 9 17 20 27 11
10 20 26 20 36 0 10 5 21 10 24 13 8 13 38 -2 70 -16 36 -60 45 -130 26 -67
-18 -83 -9 -45 22 39 32 89 132 85 170 -3 32 -4 32 -58 33 -30 0 -66 -4 -80
-10 -14 -6 -35 -10 -47 -8 -22 3 -22 4 -5 35 9 18 43 59 75 91 64 65 72 96 32
122 -26 17 -48 18 -195 10 -116 -7 -143 1 -198 58 -47 48 -165 111 -225 120
-21 4 -47 10 -56 16 -10 5 -21 7 -23 4 -3 -2 -18 1 -34 8 -32 13 -48 15 -179
18 -114 3 -138 11 -130 43 7 26 -16 77 -50 114 -31 33 -41 47 -55 74 -7 13
-21 31 -32 40 -10 9 -18 21 -18 27 0 6 -13 24 -30 40 -16 17 -30 35 -30 39 0
5 -22 30 -49 55 l-49 46 -111 -4 c-62 -2 -111 0 -111 5 0 20 -67 39 -130 36
-49 -1 -73 3 -100 18 -24 14 -56 21 -100 22 -36 1 -78 4 -95 8 -169 38 -713
54 -764 23 -15 -10 -171 -14 -171 -5 0 4 7 12 16 20 10 8 13 21 9 38 -4 14 -8
34 -10 43 -2 9 -13 26 -26 39 -19 19 -29 21 -85 16 -35 -2 -64 -3 -64 -1 0 2
9 18 19 35 15 24 17 37 9 54 -20 44 -101 66 -130 37 -18 -18 -46 -14 -58 7
-13 24 -4 48 20 56 25 8 33 36 21 69 -6 14 -8 26 -4 26 3 0 -11 11 -31 25 -20
14 -49 25 -63 25 -28 0 -63 -33 -63 -60 0 -23 -18 -37 -57 -43 -45 -7 -50 8
-14 44 37 36 38 49 9 76 -49 44 -114 57 -138 28 -15 -18 -32 -20 -28 -2 5 26
-13 54 -45 68 -30 14 -36 14 -87 -7z"/>
</g>
</svg>
